<?xml version="1.0" encoding="UTF-8"?><svg id="Layer_1" xmlns="http://www.w3.org/2000/svg" viewBox="0 0 48 43.82"><defs><style>.cls-1{fill:#4b7ff8;}</style></defs><g id="SAAS"><path d="M43.74,18.89c2.86-6.53-3.02-13.42-9.9-11.56-.71-5.51-6.41-8.85-11.59-6.64-2.67,1.14-4.64,3.74-4.94,6.64-4.71-1.27-9.57,1.64-10.5,6.45-.29,1.5-.14,2.76.21,4.22-2.99.41-5.51,2.54-6.53,5.36-1.87,5.19,1.69,10.65,7.11,11.17l8.7.03-.05-1.37H7.77c-7.34-.6-8.87-10.93-1.93-13.53.84-.32,1.51-.26,2.29-.44,1.02-.24.3-1.32.13-1.93-1.44-5.29,3.24-9.96,8.53-8.69.43.1,1.03.48,1.42.28.48-.25.31-.7.37-1.11,1.24-8.51,12.62-8.75,14.01.16.06.4-.11.71.37.95.38.2.99-.17,1.42-.28,2.57-.64,5.11.12,6.91,2.05,1.9,2.04,2.33,4.83,1.33,7.43-.15.4-.6.92-.47,1.33.13.4.82.58,1.16.79,5.82,3.72,3.76,12.18-2.95,13l-8.62-.03v1.39s8.77-.04,8.77-.04c8.12-.88,10.32-11.57,3.24-15.64Z"/><path d="M13.89,18.27c-.5-.46-.96-1.92-.04-1.98.68-.04.5.8.81,1.13.63.66,1.82-.35,1.02-1.1-.3-.28-.49-.13-.8-.21-2.27-.57-1.94-3.6.16-3.78.67-.06,1.38.29,1.74.86.26.41.56,1.31-.04,1.55-.97.39-.6-1.01-1.3-1.23-.79-.25-1.38.74-.75,1.29.25.22,1.09.16,1.59.51,2.14,1.46-.39,4.8-2.41,2.95Z"/><path d="M31.25,17.9c-.29-.45-.58-1.57.22-1.61.8-.04.44.94,1.02,1.24,1.03.52,1.62-1.09.52-1.37-.73-.19-1.1-.05-1.65-.76-1.45-1.89,1.2-4.15,2.85-2.5.47.47.89,2.02-.08,1.92-.78-.08-.27-1.21-1.18-1.32-.88-.11-1.21,1.23-.29,1.46.76.19,1.45.18,1.86,1.03,1.09,2.27-2.02,3.89-3.25,1.93Z"/><path d="M23.4,17.8c-.31-1.16-1.39-3.72-1.94-4.84-.29-.6-.74-1.01-1.2-.24-.83,1.43-1.28,3.74-2.07,5.26-.16.57.31,1.03.84.68.35-.23.68-1.54.87-1.97h1.73c.45.42.58,2.23,1.4,2.08.51-.09.48-.57.37-.97ZM21.21,15.51h-.78l.31-1.01c.14.05.51.98.47,1.01Z"/><path d="M29.81,17.86c-.39-1.6-1.59-3.48-2.03-5.13-.57-.78-.91-.37-1.22.29-.73,1.54-1.19,3.3-1.94,4.84-.29.82.59,1.3,1.05.51.16-.27.54-1.56.68-1.65l1.75-.04c.29.46.56,2.07,1.18,2.11.11,0,.42-.11.48-.18.16-.17.1-.53.04-.75ZM26.83,15.51s.31-.93.43-1.01l.35,1.01h-.78Z"/><path d="M6.52,30c-.64,1.02-1.68-.54-2-1.11-.81-1.48-.87-3.3-.21-4.83.21-.49.98-1.82,1.53-1.91.38-.06.78.28.79.65.01.46-.43.67-.65.98-1.16,1.68-.99,3.51.16,5.13.25.36.72.55.38,1.09Z"/><path d="M43.59,28.73c-.29.59-1.35,2.27-2.04,1.31-.43-.6.36-1.1.69-1.65.85-1.45.78-3.24-.19-4.62-.18-.26-.59-.49-.64-.84-.06-.34.24-.74.59-.78.83-.11,1.85,2.01,2.01,2.71.29,1.28.17,2.69-.42,3.87Z"/><path class="cls-1" d="M31.63,35.73l.14-1.13v-1.4c-.09-.06-.18-.95-.11-1.07.13-.22,1.32-.68,1.57-.94.35-.36.15-.72-.03-1.08-.3-.61-1.08-2.03-1.47-2.54-.73-.96-1.98.79-2.53.57-.16-.07-.57-.49-.79-.64-.67-.45-1.35-.77-2.11-1.03-.21-.82.43-2.3-.78-2.44-.7-.08-2.28-.07-2.99,0-1.33.12-.63,1.54-.86,2.44-.76.27-1.44.59-2.11,1.03-.21.14-.69.62-.84.66-.43.12-1.8-1.41-2.36-.72-.48.93-1.28,1.93-1.69,2.87-.53,1.21,1.31,1.25,1.65,1.81.09.14-.02,1.04-.17,1.09l.06,1.38.14,1.13c-.4.25-1.56.73-1.74,1.13-.16.37.08.65.24.98.29.57.99,1.87,1.36,2.33.76.94,1.64-.3,2.45-.57.87.78,1.89,1.42,3.03,1.73.14.73-.4,2.3.68,2.43.68.08,2.55.08,3.23,0,1.07-.13.54-1.69.68-2.43,1.14-.31,2.15-.94,3.02-1.72.7.19,1.63,1.34,2.32.73.26-.22,1.29-2.09,1.5-2.5.16-.32.4-.61.24-.98-.17-.4-1.34-.88-1.74-1.13ZM30.87,38.96c-.52-.26-1.28-.98-1.87-.84-.59.42-1.04.93-1.68,1.3-.4.23-.8.41-1.23.58-.24.1-1.15.23-1.15.58v1.85h-1.89v-1.85c0-.35-.91-.48-1.15-.58-.42-.17-.84-.34-1.23-.58-.38-.23-1.5-1.26-1.68-1.3-.59-.14-1.35.59-1.87.84l-.9-1.53c0-.31,1.57-.68,1.65-1.34.05-.38-.3-1.34-.32-1.88-.04-.9.26-1.52.31-2.29.06-.87-1.18-.95-1.63-1.49l.78-1.52c.85.12,1.44,1.24,2.31.62.67-.48,1-1.02,1.87-1.43.37-.17,1.86-.51,1.86-.89v-1.73c.07-.11.16-.11.27-.12.26-.03,1.18-.04,1.42,0,.09.02.15.04.2.12.07.5-.1,1.27,0,1.73.09.43,1.43.69,1.86.89.89.42,1.23.96,1.91,1.47.77.57,1.51-.57,2.27-.66l.78,1.52c-.5.58-1.74.61-1.63,1.57.09.78.35,1.32.31,2.21-.02.54-.36,1.49-.32,1.88.08.66,1.64,1.03,1.65,1.34l-.9,1.53Z"/><path class="cls-1" d="M23.59,30.34c-2.46.27-3.91,2.98-2.8,5.19,1.3,2.6,5.12,2.6,6.42,0,1.27-2.55-.8-5.5-3.62-5.19ZM24.34,36.12c-3.12.37-3.47-4.15-.6-4.45,2.97-.31,3.36,4.12.6,4.45Z"/></g></svg>