<?xml version="1.0" encoding="UTF-8"?><svg id="Layer_1" xmlns="http://www.w3.org/2000/svg" viewBox="0 0 48 37.27"><defs><style>.cls-1{fill:#4b7ff8;}</style></defs><path d="M24,1.21c3.1,0,5.62,2.52,5.62,5.62s-2.52,5.62-5.62,5.62-5.62-2.52-5.62-5.62,2.52-5.62,5.62-5.62M24,0c-1.82,0-3.54.71-4.83,2-1.29,1.29-2,3-2,4.83s.71,3.54,2,4.83c1.29,1.29,3,2,4.83,2s3.54-.71,4.83-2c1.29-1.29,2-3,2-4.83s-.71-3.54-2-4.83c-1.29-1.29-3-2-4.83-2h0Z"/><path d="M47.87,26.22c-.06-.36-.61-2.41-.87-2.51-.04.15-.15.09-.26.14-.1.05-.7.35-.72.4.56,1.39.9,2.82.75,4.33-.5,4.96-5.13,8.32-9.94,7.33-.11-.02-.22-.05-.33-.07,0,0,0,0,0,0-.1-.02-.19-.05-.29-.08-.5-.14-.97-.37-1.44-.59-.08-.04-.15-.08-.23-.12-.15-.09-.3-.17-.42-.25,0,0,0,0,0,0-.12-.07-.24-.15-.36-.23,0,0-.01,0-.02-.01,0,0-.01,0-.02-.01-.01,0-.02-.01-.03-.02,0,0,0,0-.01-.01,0,0,0,0-.01,0,0,0,0,0-.01,0-.01,0-.02-.01-.02-.01-.3-.22-.59-.46-.83-.7-6.17-5.91-.25-16.28,8.12-13.88,1.26.36,2.43,1.15,3.4,2l.83-.83c-1.62-1.57-3.82-2.56-6.08-2.71-.91-.06-1.82.1-2.72.25-.12-.04-.35-.93-.45-1.12-.68-1.36-2.6-2.37-4.1-2.41h-15.65s-.9.1-.9.1l-.06-.04c-.04-.24-.12-.48-.2-.71-.51-1.35-1.4-2.49-2.53-3.35C7.03,6.94-.43,11.14.02,17.88c.01.16.06.32.08.48.05.09,1.02-.13,1.19-.15-.44-2.72.95-5.52,3.37-6.8,4.39-2.32,9.62.85,9.64,5.78.01,4.57-4.55,7.71-8.85,6.13-1.36-.5-2.48-1.49-3.27-2.68-.24.26-.65.39-.94.64-.02.14.54.84.66.99,1.69,1.96,4.31,2.91,6.88,2.61.27-.03.52-.15.79-.14l-1.11,3.23c-.82,2.06-.83,2.55-.83,2.57-.02.08-.03.15-.03.19-.2,2.4,1.31,4.31,3.71,4.57h21.35c.13.01.27.15.39.25h0s0,0,0,0c.06.05.12.1.17.12.09.06.19.12.3.19.02.02.05.04.08.06.17.1.35.2.52.29,0,0,0,0,0,0,0,0,0,0,0,0,0,0,0,0,0,0,0,0,.01,0,.01,0h0s0,0,0,0c6.89,3.52,14.97-2.15,13.71-9.98ZM28.01,16.26c1.3.13,2.71-.08,3.99.02.81.07,1.75.54,2.32,1.11.45.45.72.98.82,1.61-.63.22-1.24.53-1.8.9-2.99,1.95-4.44,5.22-4.25,8.78,0,.12.17.68.03.68h-2.3l-2.16-8.29,3.23-4.77.11-.04ZM25.11,27.55c.02.09.05.18.07.27,0,0,0,0,0,0l.14.51c0,.08.03.16.06.23l.09.32s0,.02,0,.03v-.02s.12.44.12.44c-.01.02-.04.03-.1.03h-3.05l1.54-6.01s.1.15.11.19c.36,1.3.66,2.63,1,3.94h0s.02.06.02.06ZM21.53,16.24l.08.05c1.48-.14,3.31.19,4.75,0,.02,0,.04-.05.08-.05l.05.13-2.17,3.15c-.14.09-.19-.83-.35-.81l-.15.81c-.05-.02-.12-.04-.15-.09-.26-.3-.54-.86-.77-1.21-.41-.6-.86-1.18-1.24-1.8-.02-.04-.09-.04-.1-.06v-.13ZM11.51,34.11c-1.54-.13-2.77-1.32-2.76-2.9,0-.52.2-1.04.4-1.55.08-.21.15-.42.22-.62l.29-.83s0,0,0,0c0-.01,0-.02,0-.03l.61-1.73s.01-.04.02-.06c.02-.06.04-.13.07-.19h0s0,0,0,0c.23-.68.41-1.38.71-2.04,1.35-.6,2.56-1.72,3.33-3,.87-1.44,1.17-3.08,1.07-4.76l.43-.1,4.11-.03,3.31,4.76c.03.12-.11.65-.15.81-.61,2.47-1.38,4.9-1.96,7.38,0,.04-.09.14-.11.14h-5.05l-.08-.08v-2.65h-1.16v2.65l-.08.08h-1.14v1.14l10.7.1c-1.04.85-1.76,2.17-1.87,3.51h-10.93ZM23.65,34.11s.14-.74.18-.86c.37-1.04,1.38-2.05,2.41-2.43.75-.28,2.29-.39,3.09-.3.07,0,.13,0,.17.08.37,1.31,1.1,2.44,1.92,3.5h-7.77Z"/><path class="cls-1" d="M39.1,33.2v-.96c1.39-.21,2.53-.97,2.48-2.5-.04-1.12-.87-1.9-1.87-2.27-.81-.29-2.08-.22-2.7-.88-.51-.54-.44-1.29.18-1.69.81-.51,2.19-.41,2.96.14.09.07.35.32.32.43l1.04-.55c.12-.19-.65-.84-.82-.95-.48-.31-1.03-.46-1.58-.57v-.96h-1.16v.93c-.14.13-.39.09-.57.14-2.61.77-2.47,3.76.01,4.66.83.3,2.5.24,2.9,1.19.3.7-.01,1.27-.69,1.53-.99.38-2.4.19-3.04-.72l-.96.55c-.04.08.05.2.09.27.35.55,1.11.93,1.72,1.11.18.05.4.02.55.16v.93h1.16Z"/><path class="cls-1" d="M8.35,12.86h-1.21v.65c-.75.2-1.49.51-1.81,1.26-.55,1.3.28,2.4,1.49,2.83.77.27,2.57.19,2.27,1.49-.18.81-2.51.78-2.82-.06l-1.06.56c.32.7,1.17,1.17,1.92,1.21v.71h1.21s.03-.66.03-.66c1.62-.19,2.63-1.93,1.48-3.3-.83-1-1.88-.72-2.87-1.17-.43-.2-.69-.5-.6-1.01.09-.55.89-.66,1.33-.66.6,0,1.15.13,1.52.63l1.03-.58c-.41-.73-1.15-1.04-1.91-1.25v-.64Z"/></svg>