<?xml version="1.0" encoding="UTF-8"?><svg id="Layer_1" xmlns="http://www.w3.org/2000/svg" viewBox="0 0 48 45.02"><defs><style>.cls-1{fill:#4b7ff8;}</style></defs><g id="SPA"><path class="cls-1" d="M40.92,24.27c.6,1.47,1.35,2.92,1.48,4.53.41-.22.84-.4,1.24-.62,1.25-.71,2.87-2.53,3.09.09.13,1.54-.1,3.1-.24,4.63,2.49-1.05,1.24,2.01.84,3.19-2.58,7.62-8.35,10.72-16.06,7.63-5.93,2.42-11.71,1.21-14.86-4.61-.57-1.06-1.98-4.46-2.01-5.56-.02-.62.39-1,1.01-.89.23.04.31.28.55.24-.09-1.46-.35-2.92-.24-4.39.04-.63.04-1.54.8-1.62.52-.05,1.76.99,2.3,1.3.4.23.83.4,1.24.62.13-1.24.52-2.45,1.06-3.57,1.41-2.89,1.85-.15,2.74,1.15.17.25,1.23,1.64,1.49,1.45.55-1.2,1.55-2.31,2.53-3.19.53-.48,2.83-2.25,3.42-2.22.87.05,3.93,2.73,4.58,3.48.26.3,1.35,1.98,1.56,1.92.49-.63,1.01-1.12,1.43-1.81.53-.87.79-2.73,2.08-1.76ZM35.9,29.03c.33-.56-2.32-3.16-2.81-3.58-.29-.24-1.52-1.19-1.81-1.21-.36-.02-1.81,1.14-2.16,1.44-.52.45-2.69,2.7-2.59,3.29.24.15.85.63,1.09.51.13-.07.32-.45.48-.61.58-.61,2.41-2.36,3.19-2.35.49,0,1.62.97,2.04,1.34.57.51,1.09,1.08,1.58,1.67l.99-.49ZM37.6,36.02c3.19-1.84,3.9-5.95,2.76-9.26-1.24,1.55-2.56,3.2-4.45,3.97.88,1.65,1.7,3.36,1.68,5.29ZM26.53,30.73c-1.18-.5-2.33-1.46-3.19-2.4-.33-.37-.61-.89-.92-1.24-.11-.12-.12-.25-.34-.2-1.17,3.24-.33,7.33,2.76,9.14-.02-1.96.8-3.62,1.68-5.29ZM31.18,28.21c-2.98,2.39-5.42,5.56-4.59,9.61,1.11,5.4,8.15,5.43,9.26,0,.83-4.03-1.61-7.34-4.68-9.61ZM21.49,35.06c-.25-.6-.61-1.13-.84-1.74-.35-.91-.51-1.82-.71-2.78l-2.65-1.37c.05,1.65.08,3.36.66,4.93.3.34,3.3,1.18,3.54.96ZM45.17,29.17l-2.7,1.44c-.13.77-.24,1.53-.49,2.28s-.7,1.44-1.02,2.17c.26.23,3.33-.61,3.61-1.01s.77-4.68.59-4.88ZM26.82,41.63c-.72-.72-1.18-1.67-1.54-2.61-.11-.28-.11-.63-.21-.87-.2-.45-1.96-1.08-2.5-1.23-2.01-.55-4.17-.52-6.01-1.74.88,3.07,2.8,6.59,6.04,7.6,1.71.53,4.1.68,5.84.25.12-.03.3.02.26-.16-.63-.23-1.41-.77-1.88-1.25ZM33.75,42.99c1.97.44,3.87.41,5.82-.13,3.47-.96,5.4-4.43,6.32-7.68-1.83,1.24-4,1.2-6.01,1.74-.53.14-2.29.78-2.5,1.23-.16.35-.19.88-.37,1.31-.35.86-.86,1.57-1.48,2.25l-1.79,1.27Z"/><path d="M16.92,12.82h7.03c2.66,0,5.74,2.31,6.97,4.57.4.73,1.66,3.3.21,3.47-.89.1-1.11-1.77-1.45-2.46-2.86-5.76-8.83-3.37-13.67-4-.34-.04-.57-.21-.65-.55l.6-7.39h-7.33c.24.69.57,1.34.78,2.04.59,1.99,1.43,8.98.99,10.84-.79,3.35-3.44,3.33-5.6,5.1-1.56,1.27-2.72,3.23-3.08,5.21-.13.69-.34,1.85,0,2.41h10.46c.25,0,.62.53.63.8,0,.21-.4.76-.51.76H1.89c.81,2.81,3.17,5.12,5.95,6.01,2.48.8,5.08.32,7.64.53.79.26.44,1.51-.07,1.51h-7.39v1.68h10.76c.34,0,.87,1.36-.49,1.55-3.47-.23-7.4.34-10.81.02-.31-.03-.76-.12-.95-.37-.29-.37.1-3.03-.12-3.71-2.16-1.09-4.11-2.69-5.25-4.85C-1.01,31.88-.06,26.59,3.4,23.52c2.57-2.29,5.78-1.89,5.59-6.31-.11-2.51-.56-7.2-1.5-9.44-.19-.45-.97-1.61-1.02-1.87-.05-.3.03-1.01.42-1.01h2.7c.11-1.28-.15-2.78,0-4.03.03-.29.12-.54.36-.72,1.64.05,3.76-.27,5.36-.07.4.05.61.26.66.66.15,1.21-.14,2.71.01,3.96l.18.18,1.13.07.32.74-.68,7.14ZM14.39,1.64h-3.25v3.13c.15-.07.36.12.42.12h2.82V1.64Z"/><path d="M16.62,17.63l-.13.25c.05,1.08.42,2.13,1.21,2.88.73.7,3.07,1.43,3.42,1.99.49.78-.13,1.46-1.04,1.16-.4-.13-2.06-1-2.47-1.25-1.28-.79-2.28-2.19-2.58-3.68-.15-.79-.38-2.89.75-2.91,4.25.38,10.95-1.62,12.74,3.73.24.73.72,2.76-.59,2.64-.86-.08-.68-1.36-.88-2.02-.35-1.2-1.93-2.79-3.22-2.79h-7.21Z"/></g></svg>