<?xml version="1.0" encoding="utf-8"?>
<!-- Generator: Adobe Illustrator 25.0.0, SVG Export Plug-In . SVG Version: 6.00 Build 0)  -->
<svg version="1.1" id="Layer_1" xmlns="http://www.w3.org/2000/svg" xmlns:xlink="http://www.w3.org/1999/xlink" x="0px" y="0px"
	 viewBox="0 0 54 46" style="enable-background:new 0 0 54 46;" xml:space="preserve">
<style type="text/css">
	.st0{fill:#ACABD5;}
	.st1{fill:#0D2561;}
	.st2{fill:#F9F9FF;}
	.st3{fill:#FFFFFF;}
	.st4{fill:#FF8570;}
	.st5{fill:#0D2561;stroke:#0D2561;stroke-width:0.5;stroke-miterlimit:10;}
	.st6{fill:#5F6695;}
</style>
<g>
	<g>
		<path class="st0" d="M8.2,13.7c0-4,2.6-6,5.6-6h30.3c1.5,0,2.8,1.3,2.8,2.8v31.6c0,1.6-1.3,2.8-2.8,2.8H13.8c-6.5,0-5.6,0.2-5.6-6
			"/>
		<path class="st1" d="M43.8,46H10.2C7.9,46,6,44.1,6,41.8V29.2c0-0.6,0.5-1.1,1.1-1.1s1.1,0.5,1.1,1.1v12.6c0,1.1,0.9,2,2,2h33.6
			c1.1,0,2-0.9,2-2V13.1c0-2.4-1.9-4.3-4.3-4.3H12.5c-2.4,0-4.3,1.9-4.3,4.3v6.5c0,0.6-0.5,1.1-1.1,1.1S6,20.3,6,19.7v-6.5
			c0-3.6,2.9-6.5,6.5-6.5h29.1c3.6,0,6.5,2.9,6.5,6.5v28.7C48,44.1,46.1,46,43.8,46z"/>
	</g>
	<path class="st2" d="M1.6,7.1c0-5,0.3-6,3.3-6h43.8c2,0,3.6,1.6,3.6,3.6v31.9c0,2-1.9,3.6-3.9,3.6H7.1c-5.2,0-5.5-3.2-5.5-7.7"/>
	<g>
		<g>
			<line class="st1" x1="1.1" y1="18.9" x2="1.1" y2="16.4"/>
			<path class="st1" d="M1.1,20C0.5,20,0,19.5,0,18.9v-2.6c0-0.6,0.5-1.1,1.1-1.1s1.1,0.5,1.1,1.1v2.6C2.2,19.5,1.7,20,1.1,20z"/>
		</g>
		<g>
			<polygon class="st0" points="2.2,8.7 51.8,8.7 51.8,2 6,2 2.2,2 			"/>
			<path class="st1" d="M49,41.4H5c-2.7,0-5-2.2-5-5V22.5c0-0.6,0.5-1.1,1.1-1.1s1.1,0.5,1.1,1.1v13.9c0,1.5,1.3,2.8,2.8,2.8H49
				c1.5,0,2.8-1.3,2.8-2.8V5c0-1.5-1.3-2.8-2.8-2.8H5C3.4,2.2,2.2,3.4,2.2,5v8c0,0.6-0.5,1.1-1.1,1.1S0,13.6,0,13V5c0-2.7,2.2-5,5-5
				H49c2.7,0,5,2.2,5,5v31.4C54,39.1,51.8,41.4,49,41.4z"/>
			<path class="st1" d="M48,9.8H2.2c-0.6,0-1.1-0.5-1.1-1.1c0-0.6,0.5-1.1,1.1-1.1H48c0.6,0,1.1,0.5,1.1,1.1
				C49.1,9.3,48.6,9.8,48,9.8z"/>
			<g>
				<ellipse class="st3" cx="38.3" cy="24.8" rx="3.1" ry="3.1"/>
				<g>
					<path class="st4" d="M43.4,19.7c-0.5-0.5-0.7-1.2-0.6-1.9c0.1-0.6-0.2-1.2-0.7-1.4c-0.1-0.1-0.2-0.1-0.4-0.2
						c-0.6-0.2-1.2,0-1.5,0.5c-0.4,0.6-1,0.9-1.7,0.9c-0.7,0-1.4-0.4-1.8-1c-0.3-0.5-1-0.7-1.5-0.5c-0.1,0-0.2,0.1-0.3,0.1
						c-0.6,0.2-0.9,0.8-0.7,1.4c0.2,0.7,0,1.4-0.6,2c-0.5,0.5-1.3,0.7-2,0.6c-0.6-0.1-1.2,0.2-1.4,0.8c0,0.1-0.1,0.2-0.1,0.3
						c-0.2,0.6,0,1.2,0.5,1.5c0.6,0.4,1,1,1,1.8c0,0.7-0.4,1.4-1,1.8c-0.5,0.3-0.7,1-0.5,1.6c0,0.1,0.1,0.2,0.1,0.3
						c0.2,0.6,0.9,0.9,1.4,0.7c0.7-0.2,1.4,0,2,0.6c0.5,0.5,0.7,1.2,0.6,1.9c-0.1,0.6,0.2,1.2,0.8,1.4c0.1,0,0.2,0.1,0.4,0.1
						c0.5,0.2,1.2,0,1.5-0.5c0.4-0.6,1-1,1.8-1c0.7,0,1.3,0.3,1.7,0.9c0.3,0.5,0.9,0.7,1.5,0.5c0.1-0.1,0.3-0.1,0.4-0.2
						c0.5-0.2,0.8-0.8,0.7-1.4c-0.1-0.7,0.1-1.4,0.6-1.9c0.5-0.5,1.2-0.7,1.8-0.6c0.6,0.1,1.1-0.2,1.4-0.8c0.1-0.1,0.1-0.3,0.2-0.4
						c0.2-0.5,0-1.1-0.5-1.5c-0.5-0.4-0.9-1-0.9-1.7c0-0.7,0.3-1.3,0.9-1.7c0.5-0.3,0.7-0.9,0.5-1.5c-0.1-0.1-0.1-0.3-0.2-0.4
						c-0.2-0.5-0.8-0.8-1.4-0.7C44.6,20.5,43.9,20.3,43.4,19.7z M41.2,26.8c-1.4,1.8-4.1,1.8-5.5,0c-1-1.2-1-3,0-4.3
						c1.4-1.8,4.1-1.8,5.5,0C42.1,23.8,42.1,25.6,41.2,26.8z"/>
					<path class="st5" d="M35.7,33.6c-0.2,0-0.4,0-0.6-0.1c-0.1,0-0.3-0.1-0.4-0.1c-0.7-0.3-1.1-1.1-1-1.8c0.1-0.6-0.1-1.1-0.5-1.5
						c-0.4-0.4-1-0.6-1.6-0.5c-0.8,0.2-1.5-0.2-1.9-1c0-0.1-0.1-0.2-0.1-0.3c-0.3-0.7,0-1.6,0.6-2c0.5-0.3,0.8-0.9,0.8-1.5
						c0-0.6-0.3-1.2-0.8-1.5c-0.7-0.4-1-1.3-0.7-2c0-0.1,0.1-0.2,0.1-0.3c0.3-0.7,1.1-1.2,1.9-1c0.6,0.1,1.2,0,1.6-0.5
						c0.4-0.4,0.6-1,0.5-1.6c-0.2-0.8,0.2-1.5,1-1.9c0.1,0,0.2-0.1,0.3-0.1c0.7-0.3,1.5,0,2,0.6c0.3,0.5,0.9,0.8,1.4,0.8
						c0.6,0,1.1-0.3,1.4-0.8c0.4-0.7,1.3-0.9,2-0.6c0.1,0.1,0.3,0.1,0.4,0.2c0.7,0.3,1.1,1.1,1,1.8c-0.1,0.6,0.1,1.1,0.5,1.5v0
						c0.4,0.4,1,0.6,1.5,0.5c0.7-0.1,1.5,0.3,1.8,1c0.1,0.1,0.1,0.3,0.2,0.4c0.3,0.7,0,1.5-0.6,1.9c-0.4,0.3-0.7,0.8-0.7,1.4
						c0,0.6,0.3,1.1,0.7,1.4c0.6,0.5,0.9,1.2,0.6,1.9c-0.1,0.1-0.1,0.3-0.2,0.4c-0.3,0.7-1,1.1-1.8,1c-0.5-0.1-1.1,0.1-1.5,0.5
						c-0.4,0.4-0.6,1-0.5,1.5c0.1,0.7-0.3,1.5-0.9,1.8c-0.1,0.1-0.3,0.1-0.4,0.2c-0.7,0.3-1.5,0-1.9-0.6c-0.3-0.4-0.8-0.7-1.4-0.7
						c-0.6,0-1.1,0.3-1.4,0.8C36.8,33.4,36.3,33.6,35.7,33.6z M32.1,28.7c0.7,0,1.3,0.3,1.8,0.7c0.6,0.6,0.8,1.4,0.7,2.2
						c-0.1,0.4,0.1,0.8,0.5,1c0.1,0,0.2,0.1,0.3,0.1c0.4,0.1,0.8,0,1-0.3c0.5-0.7,1.2-1.1,2.1-1.1c0.8,0,1.6,0.4,2,1
						c0.2,0.3,0.7,0.5,1,0.3c0.1-0.1,0.3-0.1,0.4-0.2c0.4-0.2,0.6-0.6,0.5-1c-0.1-0.8,0.1-1.6,0.7-2.2c0.6-0.6,1.4-0.8,2.1-0.7
						c0.4,0.1,0.8-0.2,1-0.5c0.1-0.1,0.1-0.3,0.2-0.4c0.1-0.4,0-0.8-0.3-1c-0.6-0.5-1-1.2-1-2c0-0.8,0.4-1.5,1-2
						c0.3-0.3,0.5-0.7,0.3-1c-0.1-0.1-0.1-0.3-0.2-0.4c-0.2-0.4-0.6-0.6-1-0.5c-0.8,0.1-1.6-0.1-2.2-0.7v0c-0.6-0.6-0.8-1.4-0.7-2.2
						c0.1-0.4-0.1-0.8-0.5-1c-0.1-0.1-0.2-0.1-0.3-0.1c-0.4-0.2-0.8,0-1.1,0.3c-0.5,0.7-1.2,1.1-2.1,1.1c-0.8,0-1.6-0.4-2.1-1.1
						c-0.2-0.3-0.7-0.5-1.1-0.3c-0.1,0-0.2,0.1-0.3,0.1c-0.4,0.2-0.6,0.6-0.5,1c0.2,0.9-0.1,1.7-0.7,2.3c-0.6,0.6-1.5,0.9-2.3,0.7
						c-0.4-0.1-0.8,0.1-1,0.5c0,0.1-0.1,0.2-0.1,0.3c-0.2,0.4,0,0.8,0.4,1.1c0.7,0.5,1.2,1.3,1.2,2.1c0,0.8-0.4,1.6-1.1,2.1
						c-0.4,0.2-0.5,0.7-0.4,1.1c0,0.1,0.1,0.2,0.1,0.3c0.2,0.4,0.6,0.6,1,0.5C31.7,28.8,31.9,28.7,32.1,28.7z M38.4,28.6
						c-1.2,0-2.3-0.6-3.1-1.5c-1.1-1.4-1.1-3.4,0-4.7c0.7-1,1.9-1.5,3.1-1.5c1.2,0,2.3,0.6,3.1,1.5c1.1,1.4,1.1,3.4,0,4.7l0,0
						C40.7,28,39.6,28.6,38.4,28.6z M38.4,21.6c-1,0-1.9,0.4-2.5,1.2c-0.9,1.1-0.9,2.7,0,3.8c0.6,0.8,1.5,1.2,2.5,1.2
						c1,0,1.9-0.4,2.5-1.2c0.9-1.1,0.9-2.7,0-3.8C40.3,22,39.4,21.6,38.4,21.6z M41.2,26.8L41.2,26.8L41.2,26.8z"/>
				</g>
			</g>
			<path class="st6" d="M25.2,24H7c-0.4,0-0.7-0.5-0.7-1.1c0-0.6,0.3-1.1,0.7-1.1h18.1c0.4,0,0.7,0.5,0.7,1.1
				C25.9,23.5,25.6,24,25.2,24z"/>
			<path class="st6" d="M20.3,28.3H7c-0.4,0-0.7-0.5-0.7-1.1c0-0.6,0.3-1.1,0.7-1.1h13.3c0.4,0,0.7,0.5,0.7,1.1
				C21.1,27.9,20.8,28.3,20.3,28.3z"/>
		</g>
	</g>
</g>
</svg>
