<?xml version="1.0" encoding="utf-8"?>
<svg xmlns="http://www.w3.org/2000/svg" width="46" height="49" viewBox="0 0 46 49">
  <g id="Group_717" data-name="Group 717" transform="translate(9221 -662)">
    <rect id="Rectangle_26425" data-name="Rectangle 26425" width="46" height="49" transform="translate(-9221 662)" fill="none"/>
    <g id="Group_716" data-name="Group 716" transform="translate(-10150.798 215.325)">
      <line id="Line_286" data-name="Line 286" x1="6.274" y2="6.274" transform="translate(953.351 455.169)" fill="none" stroke="#57d6ed" stroke-linecap="round" stroke-linejoin="round" stroke-width="2"/>
      <line id="Line_287" data-name="Line 287" x2="6.274" y2="6.274" transform="translate(953.351 480.848)" fill="none" stroke="#57d6ed" stroke-linecap="round" stroke-linejoin="round" stroke-width="2"/>
      <path id="Path_519" data-name="Path 519" d="M31.856,7.749,15.807,16.28l16.049,8.747" transform="translate(937.04 454.833)" fill="none" stroke="#57d6ed" stroke-linecap="round" stroke-linejoin="round" stroke-width="2"/>
      <path id="Path_520" data-name="Path 520" d="M25.493,3.826l-2.2,8.778,8.754,2.529" transform="translate(938.752 453.936)" fill="none" stroke="#57d6ed" stroke-linecap="round" stroke-linejoin="round" stroke-width="2"/>
      <path id="Path_521" data-name="Path 521" d="M31.77,17.826l-8.585,2.395,2.3,8.548" transform="translate(938.728 455.505)" fill="none" stroke="#57d6ed" stroke-linecap="round" stroke-linejoin="round" stroke-width="2"/>
      <line id="Line_288" data-name="Line 288" x2="4.083" y2="4.04" transform="translate(940.428 458.894)" fill="none" stroke="#3e4571" stroke-linecap="round" stroke-linejoin="round" stroke-width="2"/>
      <line id="Line_289" data-name="Line 289" x1="4.083" y2="4.04" transform="translate(940.428 479.423)" fill="none" stroke="#3e4571" stroke-linecap="round" stroke-linejoin="round" stroke-width="2"/>
      <line id="Line_290" data-name="Line 290" x1="5.98" transform="translate(934.798 471.225)" fill="none" stroke="#3e4571" stroke-linecap="round" stroke-linejoin="round" stroke-width="2"/>
      <path id="Path_522" data-name="Path 522" d="M17.269,25.424a8.447,8.447,0,0,1,0-16.894" transform="translate(935.617 454.206)" fill="none" stroke="#3e4571" stroke-linecap="round" stroke-linejoin="round" stroke-width="2"/>
      <line id="Line_285" data-name="Line 285" y2="35.257" transform="translate(953.524 453.675)" fill="none" stroke="#57d6ed" stroke-linecap="round" stroke-linejoin="round" stroke-width="2"/>
    </g>
  </g>
</svg>
